<?xml version="1.0" standalone="no"?>
<!DOCTYPE svg PUBLIC "-//W3C//DTD SVG 20010904//EN"
 "http://www.w3.org/TR/2001/REC-SVG-20010904/DTD/svg10.dtd">
<svg version="1.0" xmlns="http://www.w3.org/2000/svg"
 width="104.000000pt" height="104.000000pt" viewBox="0 0 104.000000 104.000000"
 preserveAspectRatio="xMidYMid meet">
<metadata>
Created by potrace 1.13, written by Peter Selinger 2001-2015
</metadata>
<g transform="translate(0.000000,104.000000) scale(0.100000,-0.100000)"
fill="#000000" stroke="none">
<path d="M109 971 l-29 -29 0 -427 0 -426 25 -24 24 -25 271 0 271 0 24 25
c38 37 32 64 -28 123 -29 29 -55 52 -59 52 -3 0 -8 -9 -11 -20 -5 -20 -12 -20
-199 -18 l-193 3 -3 284 c-2 201 1 288 9 297 9 11 50 14 184 14 181 0 205 -3
205 -26 0 -24 14 -16 68 39 43 44 52 59 52 89 0 94 -12 98 -325 98 l-257 0
-29 -29z"/>
<path d="M615 649 c-74 -73 -135 -139 -135 -148 0 -20 259 -281 279 -281 20 0
71 50 71 70 0 8 -24 40 -54 69 -31 30 -52 60 -49 67 4 10 41 14 156 16 l152 3
0 55 0 55 -152 3 c-180 3 -184 7 -103 87 28 27 50 57 50 66 0 17 -53 69 -71
69 -5 0 -70 -59 -144 -131z"/>
</g>
</svg>
